<?xml version="1.0" encoding="UTF-8"?>
<svg xmlns="http://www.w3.org/2000/svg" xmlns:xlink="http://www.w3.org/1999/xlink" width="5200" height="9200" viewBox="0 0 5200 9200">
  <defs>
    <style>
      /* White wireframe framing (Figma-friendly) */
      .bg { fill: #f6f5f0; }
      .boardTitle { fill: #1f2a22; font: 700 28px ui-sans-serif, system-ui, -apple-system, Segoe UI, Roboto, Arial; letter-spacing: 0.2px; }
      .boardSub { fill: rgba(31,42,34,0.70); font: 400 14px ui-sans-serif, system-ui, -apple-system, Segoe UI, Roboto, Arial; }
      .label { fill: #1f2a22; font: 700 14px ui-sans-serif, system-ui, -apple-system, Segoe UI, Roboto, Arial; }
      .muted { fill: rgba(31,42,34,0.60); font: 400 12px ui-sans-serif, system-ui, -apple-system, Segoe UI, Roboto, Arial; }
      .frame { fill: #ffffff; stroke: rgba(31,42,34,0.14); stroke-width: 1; rx: 20; ry: 20; }
      .frameTop { fill: rgba(31,42,34,0.04); stroke: rgba(31,42,34,0.12); stroke-width: 1; rx: 20; ry: 20; }
      .card { fill: rgba(31,42,34,0.04); stroke: rgba(31,42,34,0.12); stroke-width: 1; rx: 14; ry: 14; }
      .pill { fill: rgba(31,42,34,0.04); stroke: rgba(31,42,34,0.14); stroke-width: 1; rx: 999; ry: 999; }
      .btn { fill: rgba(31,42,34,0.04); stroke: rgba(31,42,34,0.18); stroke-width: 1; rx: 999; ry: 999; }
      .btnPrimary { fill: rgba(75,96,76,0.12); stroke: rgba(75,96,76,0.55); stroke-width: 1; rx: 999; ry: 999; }
      .line { stroke: rgba(31,42,34,0.14); stroke-width: 1; }
      .img { fill: rgba(31,42,34,0.04); stroke: rgba(31,42,34,0.14); stroke-width: 1; rx: 14; ry: 14; }
      .h1 { fill: #1f2a22; font: 800 26px ui-serif, Georgia, "Times New Roman", Times; letter-spacing: 0.2px; }
      .h2 { fill: #1f2a22; font: 800 18px ui-serif, Georgia, "Times New Roman", Times; }
      .body { fill: rgba(31,42,34,0.78); font: 400 13px ui-sans-serif, system-ui, -apple-system, Segoe UI, Roboto, Arial; line-height: 1.4; }
      .mono { fill: rgba(31,42,34,0.74); font: 600 12px ui-monospace, SFMono-Regular, Menlo, Monaco, Consolas, "Liberation Mono", "Courier New", monospace; }
      .imgStroke { fill: none; stroke: rgba(31,42,34,0.14); stroke-width: 1; }
    </style>

    <!-- rounded rect clips -->
    <clipPath id="r14_1384x520"><rect x="28" y="92" width="1384" height="520" rx="14" ry="14"/></clipPath>
    <clipPath id="r14_260x214"><rect x="18" y="18" width="260" height="214" rx="14" ry="14"/></clipPath>
    <clipPath id="r14_260x214_b"><rect x="730" y="18" width="260" height="214" rx="14" ry="14"/></clipPath>
    <clipPath id="r14_220x170_a"><rect x="54" y="320" width="220" height="170" rx="14" ry="14"/></clipPath>
    <clipPath id="r14_220x170_b"><rect x="768" y="320" width="220" height="170" rx="14" ry="14"/></clipPath>
    <clipPath id="r14_620x620"><rect x="28" y="190" width="620" height="620" rx="14" ry="14"/></clipPath>
    <clipPath id="r14_354x360"><rect x="18" y="64" width="354" height="360" rx="14" ry="14"/></clipPath>
    <clipPath id="r14_354x170"><rect x="18" y="196" width="354" height="170" rx="14" ry="14"/></clipPath>
    <clipPath id="r14_354x220"><rect x="18" y="196" width="354" height="220" rx="14" ry="14"/></clipPath>
    <clipPath id="r14_354x280"><rect x="18" y="64" width="354" height="280" rx="14" ry="14"/></clipPath>
  </defs>

  <rect x="0" y="0" width="5200" height="9200" fill="#f6f5f0" />

  <!-- Board header -->
  <g transform="translate(80,70)">
    <text class="boardTitle">Forma Luna ť Client-facing Wireframe (Studio + Trade)</text>
    <text class="boardSub" y="28">
      Import to Figma: drag this SVG in. Also import `figma-logo.png` + `figma-gateway-hero.png` (included beside this SVG) if you want to swap local assets inside Figma.
    </text>
  </g>

  <!-- Layout constants: desktop frames 1440x900; mobile frames 390x844; gap 80 -->

  <!-- ========================= -->
  <!-- DESKTOP ROWS (top section) -->
  <!-- ========================= -->

  <!-- Row 1 -->
  <g transform="translate(80,160)">
    <!-- D1 Gateway -->
    <g transform="translate(0,0)">
      <rect class="frame" width="1440" height="900" />
      <text class="label" x="28" y="34">D1 ť Gateway (single banner)</text>
      <text class="muted" x="28" y="58">Home page: one hero image, no mid-CTA (header CTA only)</text>
      <g clip-path="url(#r14_1384x520)">
        <image x="28" y="92" width="1384" height="520" preserveAspectRatio="xMidYMid slice"
          href="figma-gateway-hero.png"/>
      </g>
      <rect class="imgStroke" x="28" y="92" width="1384" height="520" rx="14" ry="14"/>
      <g transform="translate(28,636)">
        <rect class="pill" x="0" y="0" width="220" height="44" />
        <image x="10" y="7" width="200" height="30" preserveAspectRatio="xMidYMid meet"
          href="figma-logo.png"/>
      </g>
      <text class="h1" x="28" y="725">Light that feels right</text>
      <text class="body" x="28" y="752">Studio projects + curated products for clients. Trade portal for approved professionals.</text>
      <text class="muted" x="28" y="812">Kicker sits bottom-left: ťArchitectural lighting studio + trade portfolioť</text>
    </g>

    <!-- D2 Studio Projects (Archive) -->
    <g transform="translate(1520,0)">
      <rect class="frame" width="1440" height="900" />
      <text class="label" x="28" y="34">D2 ť Studio: Projects archive</text>
      <text class="muted" x="28" y="58">Grid of case studies</text>
      <rect class="frameTop" x="28" y="92" width="1384" height="70" />
      <text class="muted" x="52" y="136">Navbar (Studio)</text>
      <text class="h1" x="28" y="220">Selected Projects</text>
      <text class="body" x="28" y="248">Filters / tags optional</text>
      <!-- grid -->
      <g transform="translate(28,290)">
        <rect class="card" x="0" y="0" width="672" height="250" />
        <g clip-path="url(#r14_260x214)">
          <image x="18" y="18" width="260" height="214" preserveAspectRatio="xMidYMid slice"
            href="https://beneito-faure.com/wp-content/uploads/2024/09/portada_projecte_chandigarh_cafe.jpg"/>
        </g>
        <rect class="imgStroke" x="18" y="18" width="260" height="214" rx="14" ry="14"/>
        <text class="h2" x="300" y="70">Project title</text>
        <text class="body" x="300" y="96">Category tags</text>
        <rect class="btn" x="300" y="170" width="140" height="42" />
        <text class="label" x="324" y="197">View</text>

        <rect class="card" x="712" y="0" width="672" height="250" />
        <g clip-path="url(#r14_260x214_b)">
          <image x="730" y="18" width="260" height="214" preserveAspectRatio="xMidYMid slice"
            href="https://beneito-faure.com/wp-content/uploads/2024/08/portada_institut_ferres_amat-1.jpg"/>
        </g>
        <rect class="imgStroke" x="730" y="18" width="260" height="214" rx="14" ry="14"/>
        <text class="h2" x="1012" y="70">Project title</text>
        <text class="body" x="1012" y="96">Category tags</text>
        <rect class="btn" x="1012" y="170" width="140" height="42" />
        <text class="label" x="1036" y="197">View</text>
      </g>
      <g transform="translate(28,560)">
        <rect class="card" x="0" y="0" width="672" height="250" />
        <g clip-path="url(#r14_260x214)">
          <image x="18" y="18" width="260" height="214" preserveAspectRatio="xMidYMid slice"
            href="https://gealuce.com/wp-content/uploads/2023/12/Technical-Interno.jpg"/>
        </g>
        <rect class="imgStroke" x="18" y="18" width="260" height="214" rx="14" ry="14"/>
        <text class="h2" x="300" y="70">Project title</text>
        <text class="body" x="300" y="96">Category tags</text>

        <rect class="card" x="712" y="0" width="672" height="250" />
        <g clip-path="url(#r14_260x214_b)">
          <image x="730" y="18" width="260" height="214" preserveAspectRatio="xMidYMid slice"
            href="https://beneito-faure.com/wp-content/uploads/2024/07/img_portada_casa-terral.jpg"/>
        </g>
        <rect class="imgStroke" x="730" y="18" width="260" height="214" rx="14" ry="14"/>
        <text class="h2" x="1012" y="70">Project title</text>
        <text class="body" x="1012" y="96">Category tags</text>
      </g>
    </g>

    <!-- D3 Trade Login -->
    <g transform="translate(3040,0)">
      <rect class="frame" width="1440" height="900" />
      <text class="label" x="28" y="34">D3 ť Trade: Login / Request access</text>
      <text class="muted" x="28" y="58">Gate for pricing visibility</text>
      <rect class="frameTop" x="28" y="92" width="1384" height="70" />
      <text class="muted" x="52" y="136">Navbar (Trade)</text>
      <g transform="translate(320,210)">
        <rect class="card" width="800" height="520" />
        <text class="h1" x="40" y="80">Trade Access</text>
        <text class="body" x="40" y="110">Sign in to view pricing and allocation.</text>
        <text class="muted" x="40" y="170">Email</text>
        <rect class="img" x="40" y="184" width="720" height="46" />
        <text class="muted" x="40" y="270">Password</text>
        <rect class="img" x="40" y="284" width="720" height="46" />
        <rect class="btnPrimary" x="40" y="360" width="220" height="46" />
        <text class="label" x="72" y="390">Sign in</text>
        <rect class="btn" x="280" y="360" width="240" height="46" />
        <text class="label" x="308" y="390">Request access</text>
      </g>
    </g>
  </g>

  <!-- Row 2 -->
  <g transform="translate(80,1140)">
    <!-- D4 Studio Products list -->
    <g transform="translate(0,0)">
      <rect class="frame" width="1440" height="900" />
      <text class="label" x="28" y="34">D4 ť Studio: Products list</text>
      <text class="muted" x="28" y="58">B2C browsing (no pricing)</text>
      <rect class="frameTop" x="28" y="92" width="1384" height="70" />
      <text class="muted" x="52" y="136">Navbar (Studio)</text>
      <text class="h1" x="28" y="220">Products</text>
      <rect class="pill" x="28" y="250" width="140" height="32" />
      <text class="muted" x="48" y="270">Category</text>
      <rect class="img" x="28" y="310" width="1384" height="520" />
      <text class="mono" x="50" y="340">PRODUCT_GRID (thumbnails use packshot/lifestyle)</text>
    </g>

    <!-- D5 Studio Product detail -->
    <g transform="translate(1520,0)">
      <rect class="frame" width="1440" height="900" />
      <text class="label" x="28" y="34">D5 ť Studio: Product detail</text>
      <text class="muted" x="28" y="58">Specs + downloads + CTA</text>
      <rect class="frameTop" x="28" y="92" width="1384" height="70" />
      <text class="muted" x="52" y="136">Navbar (Studio)</text>
      <g clip-path="url(#r14_620x620)">
        <image x="28" y="190" width="620" height="620" preserveAspectRatio="xMidYMid slice"
          href="https://images.unsplash.com/photo-1565814329452-e1efa11c5b89?auto=format&fit=crop&q=80&w=700&h=700"/>
      </g>
      <rect class="imgStroke" x="28" y="190" width="620" height="620" rx="14" ry="14"/>
      <text class="h1" x="690" y="245">Product Name</text>
      <text class="body" x="690" y="275">Short description paragraph&</text>
      <rect class="card" x="690" y="320" width="694" height="250" />
      <text class="mono" x="716" y="350">SPECS_GRID</text>
      <rect class="btnPrimary" x="690" y="600" width="260" height="46" />
      <text class="label" x="716" y="630">Request technical quote</text>
      <rect class="btn" x="970" y="600" width="240" height="46" />
      <text class="label" x="996" y="630">Download sheet</text>
      <rect class="card" x="690" y="680" width="694" height="130" />
      <text class="mono" x="716" y="710">RELATED_PRODUCTS</text>
    </g>

    <!-- D6 Trade Products list (two states) -->
    <g transform="translate(3040,0)">
      <rect class="frame" width="1440" height="900" />
      <text class="label" x="28" y="34">D6 ť Trade: Products list</text>
      <text class="muted" x="28" y="58">State A: not logged in / not approved ť State B: approved shows pricing</text>
      <rect class="frameTop" x="28" y="92" width="1384" height="70" />
      <text class="muted" x="52" y="136">Navbar (Trade)</text>
      <text class="h1" x="28" y="220">Trade Products</text>
      <rect class="card" x="28" y="260" width="670" height="260" />
      <text class="h2" x="54" y="300">State A ť Login to see pricing</text>
      <g clip-path="url(#r14_220x170_a)">
        <image x="54" y="320" width="220" height="170" preserveAspectRatio="xMidYMid slice"
          href="https://images.unsplash.com/photo-1510074377623-8cf13fb86c08?auto=format&fit=crop&q=80&w=700&h=700"/>
      </g>
      <rect class="imgStroke" x="54" y="320" width="220" height="170" rx="14" ry="14"/>
      <text class="body" x="294" y="340">Product name</text>
      <text class="muted" x="294" y="368">Price: Hidden</text>
      <rect class="btn" x="294" y="430" width="180" height="42" />
      <text class="label" x="318" y="457">Login</text>

      <rect class="card" x="742" y="260" width="670" height="260" />
      <text class="h2" x="768" y="300">State B ť Approved user</text>
      <g clip-path="url(#r14_220x170_b)">
        <image x="768" y="320" width="220" height="170" preserveAspectRatio="xMidYMid slice"
          href="https://images.unsplash.com/photo-1565814329452-e1efa11c5b89?auto=format&fit=crop&q=80&w=700&h=700"/>
      </g>
      <rect class="imgStroke" x="768" y="320" width="220" height="170" rx="14" ry="14"/>
      <text class="body" x="1008" y="340">Product name</text>
      <text class="muted" x="1008" y="368">Price: ť 145.00</text>
      <rect class="pill" x="1008" y="392" width="130" height="28" />
      <text class="muted" x="1028" y="412">Tier: Trade</text>
      <rect class="btnPrimary" x="1008" y="430" width="220" height="42" />
      <text class="label" x="1032" y="457">View details</text>

      <rect class="img" x="28" y="560" width="1384" height="270" />
      <text class="mono" x="50" y="590">PRODUCT_GRID</text>
    </g>
  </g>

  <!-- Row 3 -->
  <g transform="translate(80,2120)">
    <!-- D7 Studio About -->
    <g transform="translate(0,0)">
      <rect class="frame" width="1440" height="900" />
      <text class="label" x="28" y="34">D7  Studio: About</text>
      <text class="muted" x="28" y="58">Content blocks (CMS-driven)</text>
      <rect class="frameTop" x="28" y="92" width="1384" height="70" />
      <text class="muted" x="52" y="136">Navbar (Studio)</text>
      <text class="h1" x="28" y="220">About</text>
      <rect class="card" x="28" y="260" width="1384" height="570" />
      <text class="mono" x="54" y="295">CONTENT_BLOCKS</text>
    </g>

    <!-- D8 Studio Contact -->
    <g transform="translate(1520,0)">
      <rect class="frame" width="1440" height="900" />
      <text class="label" x="28" y="34">D8  Studio: Contact</text>
      <text class="muted" x="28" y="58">Lead form / request quote</text>
      <rect class="frameTop" x="28" y="92" width="1384" height="70" />
      <text class="muted" x="52" y="136">Navbar (Studio)</text>
      <text class="h1" x="28" y="220">Contact</text>
      <rect class="card" x="28" y="260" width="820" height="570" />
      <text class="mono" x="54" y="295">FORM_FIELDS</text>
      <rect class="card" x="880" y="260" width="532" height="570" />
      <text class="mono" x="906" y="295">CONTACT_INFO</text>
    </g>

    <!-- D9 Trade Product detail (pricing states) -->
    <g transform="translate(3040,0)">
      <rect class="frame" width="1440" height="900" />
      <text class="label" x="28" y="34">D9  Trade: Product detail</text>
      <text class="muted" x="28" y="58">Specs + downloads + pricing gated</text>
      <rect class="frameTop" x="28" y="92" width="1384" height="70" />
      <text class="muted" x="52" y="136">Navbar (Trade)</text>
      <rect class="img" x="28" y="190" width="620" height="620" />
      <text class="h1" x="690" y="245">Product Name</text>
      <rect class="pill" x="690" y="265" width="210" height="30" />
      <text class="muted" x="710" y="285">Wholesale & Trade</text>
      <rect class="card" x="690" y="320" width="694" height="250" />
      <text class="mono" x="716" y="350">SPECS_GRID</text>
      <!-- pricing state -->
      <rect class="card" x="690" y="600" width="694" height="110" />
      <text class="h2" x="716" y="636">Pricing</text>
      <text class="body" x="716" y="664">State A: Login/approval required ť Login to see pricing.</text>
      <text class="body" x="716" y="688">State B: Approved user ť show price + currency.</text>
      <rect class="btn" x="690" y="730" width="240" height="46" />
      <text class="label" x="716" y="760">Download data sheet</text>
      <rect class="btnPrimary" x="944" y="730" width="200" height="46" />
      <text class="label" x="968" y="760">Get quote</text>
    </g>
  </g>

  <!-- Row 4 -->
  <g transform="translate(80,3100)">
    <!-- D10 Trade About -->
    <g transform="translate(0,0)">
      <rect class="frame" width="1440" height="900" />
      <text class="label" x="28" y="34">D10  Trade: About</text>
      <text class="muted" x="28" y="58">Trade portal intro content</text>
      <rect class="frameTop" x="28" y="92" width="1384" height="70" />
      <text class="muted" x="52" y="136">Navbar (Trade)</text>
      <text class="h1" x="28" y="220">Nova / Trade</text>
      <rect class="card" x="28" y="260" width="1384" height="570" />
      <text class="mono" x="54" y="295">CONTENT_BLOCKS</text>
    </g>

    <!-- D11 Trade Contact / Request access -->
    <g transform="translate(1520,0)">
      <rect class="frame" width="1440" height="900" />
      <text class="label" x="28" y="34">D11  Trade: Contact / Request access</text>
      <text class="muted" x="28" y="58">B2B enquiry + access request</text>
      <rect class="frameTop" x="28" y="92" width="1384" height="70" />
      <text class="muted" x="52" y="136">Navbar (Trade)</text>
      <text class="h1" x="28" y="220">Request Access</text>
      <rect class="card" x="28" y="260" width="820" height="570" />
      <text class="mono" x="54" y="295">FORM_FIELDS</text>
      <rect class="card" x="880" y="260" width="532" height="570" />
      <text class="mono" x="906" y="295">NEXT_STEPS</text>
    </g>

    <!-- D12 Quotation Template -->
    <g transform="translate(3040,0)">
      <rect class="frame" width="1440" height="900" />
      <text class="label" x="28" y="34">D12  Quotation template</text>
      <text class="muted" x="28" y="58">For trade quote presentation</text>
      <rect class="frameTop" x="28" y="92" width="1384" height="70" />
      <text class="muted" x="52" y="136">Navbar (Trade)</text>
      <rect class="card" x="260" y="210" width="920" height="600" />
      <text class="mono" x="290" y="250">MULTI-PAGE_PDF_STYLE_LAYOUT</text>
      <rect class="img" x="290" y="280" width="860" height="200" />
      <rect class="img" x="290" y="500" width="860" height="140" />
      <rect class="img" x="290" y="654" width="860" height="130" />
    </g>
  </g>

  <!-- ========================= -->
  <!-- MOBILE SECTION (bottom)   -->
  <!-- ========================= -->
  <g transform="translate(80,4200)">
    <text class="boardTitle">Mobile (390px)</text>
    <text class="boardSub" y="28">Same screens, simplified layout. Two key pricing states shown in Trade list/detail.</text>
  </g>

  <!-- Mobile grid: 3 columns of 390x844 -->
  <g transform="translate(80,4300)">
    <!-- helper function emulation via repetition -->

    <!-- M1 Gateway -->
    <g transform="translate(0,0)">
      <rect class="frame" width="390" height="844" />
      <text class="label" x="18" y="32">M1  Gateway</text>
      <rect class="img" x="18" y="64" width="354" height="360" />
      <text class="mono" x="34" y="92">BANNER</text>
      <text class="h2" x="18" y="470">Forma Luna</text>
      <text class="body" x="18" y="498">Studio + Trade portals</text>
      <rect class="btnPrimary" x="18" y="540" width="354" height="46" />
      <text class="label" x="126" y="570">Enter Studio</text>
      <rect class="btn" x="18" y="596" width="354" height="46" />
      <text class="label" x="108" y="626">Enter Trade</text>
    </g>

    <!-- M2 Studio Projects -->
    <g transform="translate(470,0)">
      <rect class="frame" width="390" height="844" />
      <text class="label" x="18" y="32">M2  Studio Projects</text>
      <rect class="frameTop" x="18" y="64" width="354" height="56" />
      <text class="muted" x="34" y="98">Navbar</text>
      <text class="h2" x="18" y="160">Projects</text>
      <rect class="img" x="18" y="196" width="354" height="170" />
      <rect class="img" x="18" y="380" width="354" height="170" />
      <rect class="img" x="18" y="564" width="354" height="170" />
    </g>

    <!-- M3 Trade Login -->
    <g transform="translate(940,0)">
      <rect class="frame" width="390" height="844" />
      <text class="label" x="18" y="32">M3  Trade Login</text>
      <rect class="frameTop" x="18" y="64" width="354" height="56" />
      <text class="muted" x="34" y="98">Navbar</text>
      <text class="h2" x="18" y="170">Trade Access</text>
      <rect class="img" x="18" y="220" width="354" height="44" />
      <rect class="img" x="18" y="278" width="354" height="44" />
      <rect class="btnPrimary" x="18" y="340" width="354" height="46" />
      <text class="label" x="152" y="370">Sign in</text>
      <rect class="btn" x="18" y="396" width="354" height="46" />
      <text class="label" x="118" y="426">Request access</text>
    </g>

    <!-- Row 2 -->
    <g transform="translate(0,924)">
      <!-- M4 Studio Products -->
      <rect class="frame" width="390" height="844" />
      <text class="label" x="18" y="32">M4  Studio Products</text>
      <rect class="frameTop" x="18" y="64" width="354" height="56" />
      <text class="muted" x="34" y="98">Navbar</text>
      <text class="h2" x="18" y="160">Products</text>
      <rect class="img" x="18" y="196" width="354" height="220" />
      <rect class="img" x="18" y="432" width="354" height="220" />
      <rect class="img" x="18" y="668" width="354" height="150" />
      <text class="mono" x="34" y="696">GRID</text>
    </g>

    <g transform="translate(470,924)">
      <!-- M5 Studio Product detail -->
      <rect class="frame" width="390" height="844" />
      <text class="label" x="18" y="32">M5  Studio Detail</text>
      <rect class="img" x="18" y="64" width="354" height="280" />
      <text class="h2" x="18" y="382">Product Name</text>
      <rect class="card" x="18" y="410" width="354" height="190" />
      <text class="mono" x="34" y="440">SPECS</text>
      <rect class="btnPrimary" x="18" y="620" width="354" height="46" />
      <text class="label" x="78" y="650">Request technical quote</text>
      <rect class="btn" x="18" y="676" width="354" height="46" />
      <text class="label" x="112" y="706">Download sheet</text>
    </g>

    <g transform="translate(940,924)">
      <!-- M6 Trade Products (state A/B) -->
      <rect class="frame" width="390" height="844" />
      <text class="label" x="18" y="32">M6  Trade Products</text>
      <rect class="card" x="18" y="64" width="354" height="180" />
      <text class="muted" x="34" y="98">State A: login to see pricing</text>
      <text class="body" x="34" y="132">Price: Hidden</text>
      <rect class="btn" x="34" y="160" width="140" height="40" />
      <text class="label" x="66" y="186">Login</text>
      <rect class="card" x="18" y="262" width="354" height="180" />
      <text class="muted" x="34" y="296">State B: approved</text>
      <text class="body" x="34" y="330">Price: ť 145.00</text>
      <rect class="img" x="18" y="464" width="354" height="360" />
      <text class="mono" x="34" y="492">GRID</text>
    </g>

    <!-- Row 3 -->
    <g transform="translate(0,1848)">
      <!-- M7 Trade Detail -->
      <rect class="frame" width="390" height="844" />
      <text class="label" x="18" y="32">M7  Trade Detail</text>
      <rect class="img" x="18" y="64" width="354" height="260" />
      <text class="h2" x="18" y="362">Product Name</text>
      <rect class="card" x="18" y="390" width="354" height="170" />
      <text class="mono" x="34" y="420">SPECS</text>
      <rect class="card" x="18" y="574" width="354" height="92" />
      <text class="muted" x="34" y="606">Pricing: gated</text>
      <rect class="btnPrimary" x="18" y="684" width="354" height="46" />
      <text class="label" x="120" y="714">Get quote</text>
      <rect class="btn" x="18" y="740" width="354" height="46" />
      <text class="label" x="92" y="770">Download sheet</text>
    </g>

    <g transform="translate(470,1848)">
      <!-- M8 Studio About -->
      <rect class="frame" width="390" height="844" />
      <text class="label" x="18" y="32">M8  Studio About</text>
      <rect class="card" x="18" y="64" width="354" height="760" />
      <text class="mono" x="34" y="94">CONTENT</text>
    </g>

    <g transform="translate(940,1848)">
      <!-- M9 Contact -->
      <rect class="frame" width="390" height="844" />
      <text class="label" x="18" y="32">M9  Contact</text>
      <rect class="card" x="18" y="64" width="354" height="520" />
      <text class="mono" x="34" y="94">FORM</text>
      <rect class="card" x="18" y="600" width="354" height="224" />
      <text class="mono" x="34" y="630">INFO</text>
    </g>
  </g>

  <!-- Footer note -->
  <g transform="translate(80,9020)">
    <text class="boardSub">
      Notes: This is a low-fidelity wireframe board. Next iteration can add your exact copy, brand typography, and real image placeholders.
    </text>
  </g>
</svg>

